<svg xmlns="http://www.w3.org/2000/svg" xmlns:xlink="http://www.w3.org/1999/xlink" width="1780.635" height="768.964" viewBox="0 0 1780.635 768.964">
  <defs>
    <clipPath id="clip-path">
      <rect id="Rectangle_5063" data-name="Rectangle 5063" width="1780.635" height="768.964" fill="#fff"/>
    </clipPath>
  </defs>
  <g id="Group_3505" data-name="Group 3505" transform="translate(0 -121.875)" opacity="0.224">
    <g id="Group_3504" data-name="Group 3504" transform="translate(0 121.875)">
      <g id="Group_3503" data-name="Group 3503" clip-path="url(#clip-path)">
        <g id="Group_3502" data-name="Group 3502" transform="translate(557.219 -146.516)">
          <g id="Group_3448" data-name="Group 3448" transform="translate(0)" style="mix-blend-mode: soft-light;isolation: isolate">
            <g id="Group_3396" data-name="Group 3396" transform="translate(0 49.69)">
              <path id="Path_1526" data-name="Path 1526" d="M732.577,811.614l-.315-.641a1723.988,1723.988,0,0,0,191.112-65.536c91.512-37.823,208.9-98,248.433-169.878,20.435-37.154,18.492-74.347-5.773-110.548-40.226-60.007-113.6-126.3-184.567-190.419-111.791-101-217.384-196.4-186-258.184,15.305-30.133,61.7-49.848,141.834-60.272l.162.669c-79.784,10.379-125.947,29.953-141.128,59.84-31.194,61.415,74.236,156.67,185.856,257.518,71,64.144,144.408,130.472,184.679,190.548,24.386,36.383,26.34,73.763,5.8,111.1-17.508,31.831-51.549,64.036-101.178,95.722-39.682,25.336-89.366,50.4-147.672,74.5A1725.571,1725.571,0,0,1,732.577,811.614Z" transform="translate(-732.262 43.865)" fill="#fff"/>
            </g>
            <g id="Group_3397" data-name="Group 3397" transform="translate(26.65 48.726)">
              <path id="Path_1527" data-name="Path 1527" d="M767.615,811.511l-.331-.635a1660.564,1660.564,0,0,0,186.041-67.015c88.985-38.5,202.952-99.469,240.55-171.332,19.711-37.674,16.889-75.159-8.384-111.411-15.285-21.939-36.092-46.156-61.845-71.977-36.55-36.649-79.938-74.675-121.9-111.448C942.7,225.935,886.915,177.047,848.912,131.948c-20.429-24.243-33.722-45.065-40.64-63.655-7.755-20.842-7.387-38.429,1.124-53.766,16.892-30.788,61.181-49.867,139.381-60.042l.162.67C871.085-34.716,827.017-15.769,810.257,14.782,794.277,43.575,806.812,80.691,849.7,131.59c37.967,45.058,93.727,93.927,152.76,145.666,41.968,36.782,85.365,74.816,121.932,111.482,25.782,25.851,46.617,50.1,61.923,72.07,25.4,36.432,28.233,74.1,8.423,111.965-16.649,31.823-49.476,64.179-97.564,96.169-38.451,25.579-86.7,50.983-143.392,75.51A1661.463,1661.463,0,0,1,767.615,811.511Z" transform="translate(-767.284 45.515)" fill="#fff"/>
            </g>
            <g id="Group_3398" data-name="Group 3398" transform="translate(53.301 47.762)">
              <path id="Path_1528" data-name="Path 1528" d="M802.654,811.411l-.347-.632a1598.189,1598.189,0,0,0,181-68.475c86.472-39.161,197.036-100.925,232.7-172.783,18.965-38.211,15.245-75.993-11.054-112.3-16.15-22.32-37.447-46.225-63.3-71.05-36.075-34.635-78.332-70.571-119.2-105.322C961.35,228.9,903.642,179.823,864.107,134.2c-21.26-24.532-35.14-45.668-42.436-64.616-8.183-21.255-7.958-39.284.689-55.12,8.982-16.45,23.985-29.238,45.864-39.094,22.189-10,52.3-17.369,92.036-22.54l.162.67c-78.3,10.188-119.334,28.5-137.2,61.217-16.234,29.73-2.993,67.58,41.671,119.117,39.5,45.576,97.185,94.633,158.259,146.569,40.875,34.76,83.141,70.7,119.233,105.354,25.885,24.855,47.212,48.79,63.386,71.143,26.428,36.479,30.164,74.447,11.1,112.848-15.792,31.822-47.406,64.329-93.963,96.621-37.225,25.82-84.036,51.562-139.132,76.514A1599.346,1599.346,0,0,1,802.654,811.411Z" transform="translate(-802.307 47.164)" fill="#fff"/>
            </g>
            <g id="Group_3399" data-name="Group 3399" transform="translate(71.236 46.8)">
              <path id="Path_1529" data-name="Path 1529" d="M834.955,811.309l-.364-.626a1537.418,1537.418,0,0,0,175.984-69.916c83.971-39.819,191.15-102.368,224.88-174.231,18.2-38.766,13.558-76.853-13.785-113.2-17-22.64-38.788-46.232-64.762-70.121-35.516-32.664-76.618-66.553-116.365-99.325C980.1,234.052,917.606,182.522,876.5,136.408c-22.115-24.81-36.591-46.25-44.256-65.545-8.6-21.658-8.492-40.123.339-56.449C851.382-20.332,890.9-38.65,969-48.812l.162.67C891.428-38.027,852.108-19.83,833.447,14.665,817.091,44.9,831.427,84.6,877.277,136.036c41.068,46.071,103.542,97.582,163.959,147.4,39.756,32.779,80.865,66.675,116.4,99.353,26.006,23.919,47.825,47.544,64.849,70.217,27.477,36.525,32.135,74.8,13.849,113.755-14.937,31.824-45.342,64.485-90.371,97.077-36.005,26.06-81.39,52.138-134.894,77.509A1538.665,1538.665,0,0,1,834.955,811.309Z" transform="translate(-825.876 48.812)" fill="#fff"/>
            </g>
            <g id="Group_3400" data-name="Group 3400" transform="translate(75.771 45.836)">
              <path id="Path_1530" data-name="Path 1530" d="M863.047,811.206l-.38-.62a1478.318,1478.318,0,0,0,171-71.339c81.487-40.469,185.3-103.8,217.1-175.675,17.4-39.339,11.822-77.737-16.582-114.133-17.833-22.9-40.112-46.183-66.22-69.193-34.855-30.718-74.728-62.582-113.289-93.4-62.534-49.972-127.2-101.645-169.924-148.239-23-25.077-38.087-46.818-46.133-66.462-9.036-22.061-9.04-40.965-.014-57.791C858.213-22.2,896.045-40.377,973.537-50.461l.163.67C896.575-39.755,858.939-21.7,839.465,14.607c-16.717,31.164-1.653,71.6,46.054,123.624,42.69,46.551,107.328,98.2,169.838,148.159,38.568,30.82,78.448,62.69,113.317,93.421,26.144,23.04,48.454,46.353,66.313,69.291,28.54,36.568,34.145,75.153,16.657,114.68-14.081,31.831-43.281,64.647-86.79,97.54-34.79,26.3-78.757,52.71-130.679,78.5A1479.234,1479.234,0,0,1,863.047,811.206Z" transform="translate(-831.836 50.461)" fill="#fff"/>
            </g>
            <g id="Group_3401" data-name="Group 3401" transform="translate(80.3 44.873)">
              <path id="Path_1531" data-name="Path 1531" d="M891.136,811.1l-.4-.615a1420.33,1420.33,0,0,0,166.054-72.744c79.017-41.113,179.477-105.215,209.343-177.122,16.582-39.924,10.04-78.642-19.445-115.078-18.649-23.113-41.419-46.079-67.679-68.264-34.089-28.8-72.663-58.664-109.967-87.544-64.69-50.083-131.582-101.871-175.984-148.927-23.907-25.337-39.631-47.372-48.069-67.363-9.482-22.463-9.6-41.81-.377-59.146,10.675-20.057,25.54-34.208,46.78-44.534,20.59-10.009,47.321-16.756,86.674-21.877l.162.67C901.766-41.489,865.786-23.6,845.479,14.548c-17.092,32.111-1.278,73.285,48.344,125.874,44.361,47.014,111.229,98.782,175.9,148.846,37.31,28.886,75.892,58.755,109.994,87.565,26.3,22.216,49.1,45.216,67.775,68.363,29.623,36.608,36.2,75.51,19.534,115.625-13.226,31.843-41.225,64.817-83.221,98.009-33.579,26.54-76.135,53.279-126.484,79.475A1421.613,1421.613,0,0,1,891.136,811.1Z" transform="translate(-837.787 52.11)" fill="#fff"/>
            </g>
            <g id="Group_3402" data-name="Group 3402" transform="translate(84.823 43.91)">
              <path id="Path_1532" data-name="Path 1532" d="M919.225,811l-.415-.609a1364.4,1364.4,0,0,0,161.142-74.133c76.563-41.75,173.693-106.62,201.623-178.568,15.733-40.527,8.2-79.57-22.377-116.042-19.451-23.275-42.712-45.93-69.136-67.336-33.216-26.906-70.413-54.795-106.387-81.764-66.912-50.167-136.1-102.04-182.232-149.542C876.6,117.421,860.221,95.1,851.378,74.759c-9.941-22.864-10.186-42.658-.75-60.514,11.2-21.186,26.157-35.913,47.083-46.348C917.617-42.03,943.8-48.709,982.6-53.759l.161.67C907-43.228,872.651-25.544,851.493,14.491,834.012,47.566,850.6,89.475,902.2,142.612c46.086,47.458,115.251,99.313,182.139,149.461,35.979,26.975,73.184,54.868,106.41,81.784,26.464,21.437,49.759,44.126,69.239,67.436,30.723,36.642,38.286,75.869,22.479,116.587-12.369,31.86-39.171,65-79.66,98.485-32.375,26.779-73.527,53.845-122.314,80.448A1365.608,1365.608,0,0,1,919.225,811Z" transform="translate(-843.732 53.759)" fill="#fff"/>
            </g>
            <g id="Group_3403" data-name="Group 3403" transform="translate(89.342 42.946)">
              <path id="Path_1533" data-name="Path 1533" d="M947.312,810.9l-.433-.6a1310.077,1310.077,0,0,0,156.269-75.505c74.127-42.382,167.945-108.016,193.938-180.016,14.853-41.145,6.313-80.517-25.381-117.021a494.077,494.077,0,0,0-70.594-66.407c-32.231-25.04-67.975-50.981-102.542-76.068C1029.367,245.06,957.809,193.129,909.9,145.2c-25.815-25.826-42.866-48.434-52.127-69.117-10.416-23.264-10.787-43.51-1.135-61.9,11.876-22.62,26.49-37.474,47.383-48.163,19.509-9.98,44.364-16.39,83.108-21.433l.162.67C912.28-44.974,879.53-27.52,857.5,14.433c-17.881,34.059-.5,76.7,53.144,130.366,47.866,47.885,119.4,99.8,188.571,150,34.573,25.091,70.324,51.035,102.565,76.084a494.714,494.714,0,0,1,70.7,66.51c31.839,36.671,40.417,76.224,25.494,117.561-11.51,31.883-37.115,65.182-76.105,98.97-31.176,27.018-70.934,54.41-118.17,81.414A1310.963,1310.963,0,0,1,947.312,810.9Z" transform="translate(-849.67 55.408)" fill="#fff"/>
            </g>
            <g id="Group_3404" data-name="Group 3404" transform="translate(93.857 41.983)">
              <path id="Path_1534" data-name="Path 1534" d="M975.4,810.8l-.45-.6a1257.644,1257.644,0,0,0,151.434-76.862c71.709-43.008,162.236-109.4,186.285-181.468,13.941-41.777,4.367-81.483-28.456-118.013a488.112,488.112,0,0,0-72.052-65.477c-31.133-23.2-65.342-47.223-98.426-70.453-71.559-50.245-145.554-102.2-195.3-150.538-26.815-26.055-44.561-48.942-54.252-69.968-10.907-23.661-11.407-44.364-1.532-63.289,12.4-23.766,27.106-39.18,47.681-49.979,18.868-9.9,43.19-16.246,81.327-21.211l.162.67c-65.024,8.465-102.721,21.733-128.3,70.763-18.295,35.061-.088,78.436,55.659,132.6,49.7,48.293,123.668,100.229,195.2,150.456,33.088,23.234,67.3,47.258,98.446,70.467a488.919,488.919,0,0,1,72.165,65.581c32.971,36.694,42.587,76.581,28.581,118.55-10.649,31.911-35.062,65.375-72.559,99.462-29.984,27.257-68.356,54.972-114.051,82.377A1258.523,1258.523,0,0,1,975.4,810.8Z" transform="translate(-855.603 57.057)" fill="#fff"/>
            </g>
            <g id="Group_3405" data-name="Group 3405" transform="translate(98.369 41.02)">
              <path id="Path_1535" data-name="Path 1535" d="M1003.482,810.693l-.468-.587A1206.788,1206.788,0,0,0,1149.656,731.9c69.307-43.629,156.564-110.78,178.664-182.926,12.995-42.423,2.362-82.464-31.606-119.012a482.819,482.819,0,0,0-73.509-64.549c-29.918-21.393-62.509-43.524-94.028-64.926-73.987-50.24-150.493-102.191-202.132-150.914C899.2,123.3,880.738,100.142,870.6,78.774c-11.412-24.059-12.048-45.221-1.945-64.7,12.924-24.912,27.722-40.886,47.979-51.8,18.493-9.959,41.54-16.039,79.548-20.987l.162.67C931.47-49.59,895.945-36.608,869.524,14.32,827.736,94.868,981.3,199.145,1129.807,299.988c31.522,21.405,64.119,43.539,94.045,64.938a483.638,483.638,0,0,1,73.629,64.652c34.117,36.711,44.8,76.932,31.743,119.546-9.786,31.947-33.008,65.581-69.021,99.966-28.8,27.5-65.791,55.533-109.957,83.335A1207.7,1207.7,0,0,1,1003.482,810.693Z" transform="translate(-861.532 58.705)" fill="#fff"/>
            </g>
            <g id="Group_3406" data-name="Group 3406" transform="translate(102.957 40.057)">
              <path id="Path_1536" data-name="Path 1536" d="M1031.592,810.589l-.488-.58A1157.7,1157.7,0,0,0,1173,730.476c66.926-44.246,150.933-112.153,171.076-184.392,12.013-43.08.293-83.46-34.83-120.019a478.178,478.178,0,0,0-74.969-63.62c-28.586-19.613-59.473-39.887-89.341-59.492-154-101.081-313.241-205.6-270.244-288.932,27.435-53.169,61.057-65.915,126.045-74.376l.162.67C936.268-51.27,902.833-38.6,875.557,14.263c-42.773,82.893,116.229,187.256,269.994,288.183,29.874,19.608,60.763,39.883,89.357,59.5A478.892,478.892,0,0,1,1310,425.673c35.279,36.718,47.047,77.276,34.981,120.548-8.921,31.988-30.954,65.794-65.487,100.479-27.615,27.736-63.241,56.094-105.89,84.289A1158.826,1158.826,0,0,1,1031.592,810.589Z" transform="translate(-867.562 60.354)" fill="#fff"/>
            </g>
            <g id="Group_3407" data-name="Group 3407" transform="translate(107.448 39.093)">
              <path id="Path_1537" data-name="Path 1537" d="M1059.671,810.486l-.505-.571a1110.729,1110.729,0,0,0,137.187-80.852c64.564-44.858,145.342-113.518,163.521-185.866,10.993-43.749-1.837-84.469-38.134-121.029a474.035,474.035,0,0,0-76.424-62.69c-27.132-17.865-56.225-36.314-84.36-54.155C1001.534,204.229,836.683,99.694,880.692,13.966,909-41.167,940.6-53.585,1005.255-62l.162.67C941.124-52.962,909.7-40.615,881.56,14.207c-43.781,85.282,120.821,189.659,280,290.6,28.139,17.843,57.234,36.294,84.374,54.163a474.929,474.929,0,0,1,76.557,62.8c36.451,36.717,49.335,77.615,38.293,121.555-8.049,32.035-28.9,66.017-61.958,101-26.439,27.976-60.705,56.656-101.849,85.241A1111.818,1111.818,0,0,1,1059.671,810.486Z" transform="translate(-873.464 62.003)" fill="#fff"/>
            </g>
            <g id="Group_3408" data-name="Group 3408" transform="translate(111.938 38.13)">
              <path id="Path_1538" data-name="Path 1538" d="M1087.748,810.382l-.524-.561a1065.631,1065.631,0,0,0,132.53-82.161c62.221-45.469,139.793-114.881,156-187.353,9.932-44.426-4.035-85.486-41.513-122.038a470.58,470.58,0,0,0-77.883-61.761c-25.557-16.148-52.764-32.808-79.075-48.919C1012.273,206.554,841.65,102.079,886.7,13.911c14.486-28.353,29.555-46.009,48.86-57.248,19.56-11.387,43.817-16.357,74.22-20.315l.162.67C944.345-54.441,916-41.5,887.563,14.151c-44.814,87.716,125.553,192.032,290.31,292.915,26.315,16.112,53.525,32.774,79.088,48.926a471.436,471.436,0,0,1,78.02,61.868c37.635,36.705,51.66,77.941,41.685,122.559-7.175,32.088-26.835,66.252-58.433,101.54-25.268,28.219-58.185,57.218-97.836,86.192A1066.417,1066.417,0,0,1,1087.748,810.382Z" transform="translate(-879.364 63.652)" fill="#fff"/>
            </g>
            <g id="Group_3409" data-name="Group 3409" transform="translate(116.425 37.167)">
              <path id="Path_1539" data-name="Path 1539" d="M1115.826,810.278l-.542-.553A1022.331,1022.331,0,0,0,1243.2,726.266c59.9-46.076,134.286-116.242,148.5-188.852,8.833-45.113-6.3-86.512-44.967-123.044a467.643,467.643,0,0,0-79.34-60.831c-23.854-14.465-49.082-29.372-73.479-43.789C1023.16,208.849,846.591,104.513,892.7,13.856c15-29.5,30.162-47.718,49.152-59.067s41.8-16.1,72.447-20.09l.162.67c-60.2,7.841-89.834,17.657-120.892,78.725C847.694,104.29,1024,208.47,1194.5,309.219c24.4,14.418,49.629,29.326,73.488,43.794a468.534,468.534,0,0,1,79.482,60.94c38.831,36.684,54.022,78.255,45.153,123.559-6.295,32.15-24.77,66.5-54.911,102.09-24.1,28.462-55.678,57.782-93.849,87.143A1023.155,1023.155,0,0,1,1115.826,810.278Z" transform="translate(-885.26 65.301)" fill="#fff"/>
            </g>
            <g id="Group_3410" data-name="Group 3410" transform="translate(120.884 36.203)">
              <path id="Path_1540" data-name="Path 1540" d="M1143.9,810.173l-.562-.543a980.947,980.947,0,0,0,123.354-84.751c57.6-46.682,128.821-117.6,141.037-190.366,7.689-45.807-8.628-87.541-48.5-124.042a465.221,465.221,0,0,0-80.8-59.9c-22.027-12.818-45.179-26.013-67.57-38.774-87.248-49.724-177.465-101.141-239.465-151.455-33.486-27.175-55.879-51.585-68.458-74.627-14.193-26-15.581-49.522-4.245-71.91,31.957-63.112,61.143-73.071,120.118-80.752l.162.671c-58.613,7.633-87.62,17.538-119.41,80.318-21.007,41.488,2.714,89.193,72.521,145.843,61.945,50.27,152.13,101.668,239.346,151.374,22.392,12.762,45.546,25.959,67.577,38.779a466.031,466.031,0,0,1,80.947,60.011c40.035,36.649,56.418,78.555,48.7,124.552-5.409,32.216-22.7,66.753-51.39,102.653-22.942,28.708-53.187,58.348-89.892,88.1A982.166,982.166,0,0,1,1143.9,810.173Z" transform="translate(-891.121 66.95)" fill="#fff"/>
            </g>
            <g id="Group_3411" data-name="Group 3411" transform="translate(125.381 35.24)">
              <path id="Path_1541" data-name="Path 1541" d="M1171.976,810.068l-.58-.533A941.812,941.812,0,0,0,1290.235,723.5c55.317-47.288,123.4-118.966,133.6-191.9,6.5-46.5-11.028-88.57-52.109-125.026a463.124,463.124,0,0,0-82.256-58.973c-20.07-11.208-41.047-22.731-61.334-33.875C1138,264.206,1044.789,213,980.531,162.449c-34.716-27.313-57.967-51.949-71.08-75.317-14.8-26.377-16.358-50.381-4.758-73.386C937.53-51.375,964.681-60.961,1023.327-68.6l.162.671c-58.274,7.59-85.257,17.123-117.927,81.912-21.5,42.629,3.248,91.041,75.646,148,64.2,50.511,157.375,101.7,247.481,151.193,20.288,11.145,41.267,22.67,61.339,33.879a464,464,0,0,1,82.41,59.081c41.245,36.6,58.848,78.839,52.317,125.531-4.516,32.291-20.621,67.022-47.866,103.232-21.788,28.956-50.709,58.917-85.962,89.051A942.821,942.821,0,0,1,1171.976,810.068Z" transform="translate(-897.029 68.599)" fill="#fff"/>
            </g>
            <g id="Group_3412" data-name="Group 3412" transform="translate(129.875 34.277)">
              <path id="Path_1542" data-name="Path 1542" d="M1200.055,809.963l-.6-.52a904.42,904.42,0,0,0,114.375-87.324c53.057-47.894,118.016-120.335,126.185-193.453,5.274-47.2-13.5-89.6-55.793-125.995a455.016,455.016,0,0,0-83.714-58.043c-17.984-9.637-36.688-19.533-54.774-29.1-93.111-49.271-189.391-100.218-255.972-150.987-35.981-27.435-60.113-52.287-73.777-75.976-15.428-26.749-17.159-51.239-5.29-74.868C927.469-19.7,942.427-39,960.714-50.834c17.355-11.23,36.984-15.487,67.135-19.414l.162.671c-56.647,7.378-83.039,17-116.444,83.506-21.995,43.791,3.8,92.9,78.865,150.136,66.524,50.724,162.77,101.654,255.848,150.907,18.087,9.571,36.79,19.469,54.778,29.106a456,456,0,0,1,83.873,58.151c42.461,36.543,61.306,79.1,56.011,126.494-3.617,32.371-18.536,67.3-44.343,103.825-20.638,29.206-48.246,59.49-82.058,90.011A905.26,905.26,0,0,1,1200.055,809.963Z" transform="translate(-902.936 70.248)" fill="#fff"/>
            </g>
            <g id="Group_3413" data-name="Group 3413" transform="translate(134.509 33.314)">
              <path id="Path_1543" data-name="Path 1543" d="M1228.178,809.858l-.616-.51c.928-.605,93.534-61.52,160.281-142.231,61.55-74.43,113.063-181.4,8.924-268.347a453.9,453.9,0,0,0-85.171-57.112c-15.772-8.108-32.095-16.422-47.881-24.464-96.17-48.986-195.613-99.64-264.581-150.591-37.279-27.541-62.318-52.6-76.548-76.6-15.85-26.739-17.815-52.431-5.843-76.36,34.465-68.883,59.095-78.166,115.67-85.535l.162.67c-56.2,7.32-80.665,16.553-114.963,85.1-22.5,44.973,4.379,94.773,82.179,152.248,68.908,50.907,168.316,101.543,264.451,150.512,15.787,8.042,32.112,16.357,47.884,24.465a454.75,454.75,0,0,1,85.337,57.222c46.155,38.534,65.963,84.164,58.871,135.621-5.669,41.139-28.451,86.069-67.711,133.541C1321.806,748.279,1229.107,809.251,1228.178,809.858Z" transform="translate(-909.026 71.896)" fill="#fff"/>
            </g>
            <g id="Group_3414" data-name="Group 3414" transform="translate(139.004 32.35)">
              <path id="Path_1544" data-name="Path 1544" d="M1256.258,809.751l-.634-.5c.9-.62,90.636-62.894,154.045-144.749,58.475-75.485,105.871-183.539-.4-269.638-28.127-22.93-56.463-41.308-86.629-56.183-13.427-6.62-27.267-13.4-40.652-19.959-99.314-48.662-202.009-98.982-273.429-150.084-38.613-27.628-64.585-52.88-79.4-77.2-16.5-27.1-18.662-53.291-6.414-77.859,17.81-35.728,32.94-56.114,50.589-68.168,17.9-12.223,38.51-15.694,63.6-18.963l.162.671c-24.937,3.249-45.419,6.7-63.13,18.791-17.535,11.975-32.592,32.283-50.35,67.9C900.6,59.993,928.6,110.476,1009.2,168.153c71.359,51.059,174.018,101.36,273.3,150.005,13.384,6.558,27.224,13.34,40.652,19.961,30.231,14.907,58.624,33.32,86.8,56.291,47.1,38.157,68.313,83.753,63.055,135.519-4.2,41.386-25.246,86.781-62.544,134.926C1346.985,746.8,1257.158,809.131,1256.258,809.751Z" transform="translate(-914.932 73.546)" fill="#fff"/>
            </g>
            <g id="Group_3415" data-name="Group 3415" transform="translate(143.497 31.387)">
              <path id="Path_1545" data-name="Path 1545" d="M1284.337,809.647l-.651-.485c.87-.632,87.737-64.267,147.809-147.264,55.4-76.54,98.679-185.675-9.729-270.931-28.723-22.733-57.537-40.806-88.087-55.253q-16.432-7.772-33.086-15.6c-102.546-48.3-208.583-98.239-282.519-149.459-39.982-27.7-66.909-53.134-82.319-77.757-17.174-27.445-19.531-54.146-7-79.362,37.737-75.965,61.823-82.1,112.707-88.726l.161.671c-50.518,6.582-74.435,12.678-112,88.288-23.545,47.394,5.6,98.549,89.089,156.39,73.873,51.177,179.873,101.1,282.383,149.382q16.631,7.833,33.087,15.6c30.618,14.478,59.489,32.587,88.264,55.361,48.041,37.781,70.663,83.342,67.237,135.416-2.738,41.634-22.043,87.5-57.377,136.311C1372.164,745.315,1285.208,809.012,1284.337,809.647Z" transform="translate(-920.838 75.195)" fill="#fff"/>
            </g>
            <g id="Group_3416" data-name="Group 3416" transform="translate(147.99 30.424)">
              <path id="Path_1546" data-name="Path 1546" d="M1312.416,809.54l-.67-.471c.842-.647,84.84-65.643,141.574-149.782,52.322-77.595,91.488-187.811-19.056-272.223-29.3-22.521-58.593-40.29-89.545-54.322q-12.532-5.683-25.178-11.4c-105.868-47.89-215.34-97.41-291.857-148.715-41.386-27.749-69.294-53.355-85.317-78.28-17.863-27.787-20.426-55-7.615-80.87C953.6-24.584,968.9-46.06,985.909-58.334c16.777-12.1,35.479-15.306,60.068-18.509l.161.67c-25.2,3.283-42.956,6.332-59.579,18.325-16.908,12.2-32.141,33.6-50.935,71.558-24.079,48.633,6.24,100.45,92.686,158.414,76.452,51.262,185.886,100.765,291.716,148.638q12.638,5.717,25.181,11.4c31.02,14.063,60.369,31.868,89.727,54.431,48.983,37.4,73.013,82.931,71.421,135.312-1.273,41.881-18.84,88.21-52.213,137.7C1397.342,743.832,1313.26,808.893,1312.416,809.54Z" transform="translate(-926.741 76.843)" fill="#fff"/>
            </g>
            <g id="Group_3417" data-name="Group 3417" transform="translate(152.481 29.46)">
              <path id="Path_1547" data-name="Path 1547" d="M1340.494,809.434l-.688-.457c.813-.66,81.941-67.017,135.339-152.3,49.245-78.651,84.3-189.947-28.382-273.516-29.875-22.3-59.642-39.766-91-53.393l-16.935-7.354c-109.278-47.439-222.276-96.492-301.436-147.846C994.565,146.786,965.652,121.023,949,95.8c-18.57-28.121-21.344-55.837-8.245-82.38,39.366-79.77,60.8-85.539,109.742-91.916l.162.671c-48.569,6.328-69.841,12.063-109.032,91.477-24.621,49.89,6.9,102.357,96.374,160.4,79.1,51.311,192.054,100.348,301.295,147.77l16.936,7.355c31.431,13.657,61.259,31.157,91.191,53.5,49.926,37.028,75.362,82.52,75.6,135.21.193,42.129-15.637,88.922-47.046,139.083C1422.521,742.349,1341.308,808.772,1340.494,809.434Z" transform="translate(-932.643 78.492)" fill="#fff"/>
            </g>
            <g id="Group_3418" data-name="Group 3418" transform="translate(156.971 28.497)">
              <path id="Path_1548" data-name="Path 1548" d="M1368.572,809.326l-.7-.443c.785-.673,79.043-68.391,129.105-154.817,46.168-79.707,77.1-192.084-37.71-274.809-30.431-22.068-60.675-39.229-92.461-52.462l-8.354-3.477c-112.778-46.942-229.4-95.483-311.263-146.85-44.3-27.792-74.236-53.7-91.533-79.2-19.292-28.447-22.284-56.672-8.893-83.892,19.873-40.4,35.34-62.963,51.72-75.457,15.762-12.023,31.875-14.841,56.54-18.055l.163.671c-24.481,3.19-40.468,5.984-56.035,17.857C982.863-49.192,967.456-26.7,947.63,13.6c-25.169,51.165,7.591,104.269,100.156,162.346,81.8,51.324,198.379,99.848,311.118,146.775l8.354,3.478c31.859,13.264,62.166,30.459,92.654,52.569,50.868,36.651,77.713,82.109,79.785,135.108,1.657,42.375-12.434,89.635-41.88,140.467C1447.7,740.866,1369.357,808.652,1368.572,809.326Z" transform="translate(-938.543 80.141)" fill="#fff"/>
            </g>
            <g id="Group_3419" data-name="Group 3419" transform="translate(161.459 27.534)">
              <path id="Path_1549" data-name="Path 1549" d="M1396.649,809.22l-.721-.428c.756-.687,76.144-69.767,122.868-157.335,43.093-80.763,69.913-194.223-47.037-276.1-30.972-21.826-61.694-38.682-93.919-51.532-116.188-46.329-236.332-94.235-320.978-145.621-45.726-27.759-76.667-53.779-94.589-79.546-19.99-28.739-23.191-57.451-9.513-85.336,20.385-41.564,35.937-64.676,52-77.279,15.549-12.2,30.945-14.723,54.778-17.829l.162.671c-43.743,5.7-63.708,8.3-106.067,94.668-25.71,52.421,8.25,106.107,103.821,164.125,84.576,51.344,204.68,99.234,320.829,145.548,32.3,12.879,63.085,29.77,94.117,51.638,51.812,36.275,80.063,81.7,83.967,135,3.122,42.623-9.231,90.349-36.714,141.853C1472.874,739.382,1397.406,808.532,1396.649,809.22Z" transform="translate(-944.441 81.79)" fill="#fff"/>
            </g>
            <g id="Group_3420" data-name="Group 3420" transform="translate(165.944 26.57)">
              <path id="Path_1550" data-name="Path 1550" d="M1424.725,809.113l-.738-.413c.727-.7,73.246-71.142,116.635-159.854,40.016-81.819,62.719-196.361-56.366-277.4-31.5-21.576-62.7-38.127-95.376-50.6-111.518-42.569-237.915-90.817-325.409-142.819-46.075-27.384-77.238-53.222-95.27-78.99C948.13,70.356,944.954,41.5,958.76,13.266c20.9-42.733,36.533-66.39,52.279-79.1,15.792-12.75,32.22-14.89,53.017-17.6l.162.671c-20.624,2.688-36.915,4.811-52.493,17.389-15.66,12.643-31.239,36.232-52.092,78.876-25.991,53.148,8.165,106.794,104.421,164,87.422,51.958,213.774,100.19,325.253,142.743,32.755,12.5,64.019,29.089,95.581,50.707,52.755,35.9,82.411,81.286,88.148,134.9,4.586,42.87-6.028,91.062-31.549,143.239C1498.049,737.9,1425.453,808.411,1424.725,809.113Z" transform="translate(-950.336 83.439)" fill="#fff"/>
            </g>
            <g id="Group_3421" data-name="Group 3421" transform="translate(170.429 25.607)">
              <path id="Path_1551" data-name="Path 1551" d="M1452.8,809.005l-.753-.4c.7-.715,70.349-72.517,110.4-162.374,36.939-82.875,55.526-198.5-65.694-278.691-32.018-21.318-63.693-37.565-96.835-49.671-131.129-47.894-246.459-91.488-329.843-140.007-46.423-27.012-77.807-52.67-95.949-78.44-20.151-28.626-23.3-57.632-9.366-86.213,44.142-90.523,61.611-92.8,103.814-98.3l.162.671c-41.829,5.452-59.143,7.709-103.1,97.861-26.271,53.874,8.08,107.482,105.017,163.887,83.313,48.478,198.6,92.054,329.68,139.931,33.219,12.134,64.963,28.415,97.044,49.775,53.7,35.522,84.762,80.875,92.329,134.8,6.052,43.117-2.825,91.776-26.382,144.625C1523.224,736.414,1453.5,808.29,1452.8,809.005Z" transform="translate(-956.23 85.088)" fill="#fff"/>
            </g>
            <g id="Group_3422" data-name="Group 3422" transform="translate(174.913 24.644)">
              <path id="Path_1552" data-name="Path 1552" d="M1480.873,808.9l-.768-.382c.67-.728,67.451-73.893,104.166-164.895,33.863-83.932,48.334-200.638-75.022-279.984-32.524-21.055-64.675-37-98.293-48.74-127.312-44.469-248.678-88.423-334.282-137.188-46.771-26.644-78.378-52.123-96.625-77.894-20.231-28.571-23.355-57.726-9.287-86.655,44.943-92.421,61.546-94.584,101.661-99.81l.67-.087.162.671-.67.088c-39.739,5.177-56.187,7.32-100.95,99.368-56.624,116.44,165.641,205.158,439.721,300.891,33.7,11.77,65.918,27.747,98.506,48.844,54.64,35.145,87.111,80.465,96.511,134.7,7.516,43.365.377,92.49-21.218,146.01C1548.4,734.93,1481.545,808.17,1480.873,808.9Z" transform="translate(-962.122 86.736)" fill="#fff"/>
            </g>
            <g id="Group_3423" data-name="Group 3423" transform="translate(179.33 23.68)">
              <path id="Path_1553" data-name="Path 1553" d="M1508.927,808.791l-.782-.367c.641-.741,64.554-75.269,97.93-167.414,30.786-84.988,41.141-202.777-84.351-281.279-33.017-20.786-65.645-36.424-99.75-47.81-123.279-41.153-250.981-85.427-338.725-134.36C984.593,122.543,949.755,68.75,976.74,13.108c45.749-94.33,61.475-96.374,99.465-101.314l1.385-.181.161.671-1.384.181c-37.615,4.89-53.185,6.914-98.754,100.872-26.832,55.324,7.9,108.865,106.2,163.68,87.667,48.89,215.317,93.145,338.548,134.283,34.185,11.412,66.886,27.084,99.969,47.912,55.583,34.77,89.461,80.053,100.694,134.593,8.98,43.611,3.579,93.2-16.053,147.395C1573.55,733.444,1509.569,808.047,1508.927,808.791Z" transform="translate(-967.927 88.386)" fill="#fff"/>
            </g>
            <g id="Group_3424" data-name="Group 3424" transform="translate(183.805 22.717)">
              <path id="Path_1554" data-name="Path 1554" d="M1537,808.682l-.8-.349c.614-.756,61.657-76.646,91.7-169.936,27.708-86.046,33.947-204.918-93.68-282.573-33.5-20.513-66.606-35.847-101.21-46.879-124.38-39.655-253.33-82.477-343.171-131.525C990.5,123.189,955.469,69.425,982.737,13.056c46.56-96.25,61.439-98.177,97.384-102.834l1.984-.258.162.671-1.985.258c-35.569,4.607-50.291,6.515-96.67,102.39C924.922,134.61,1162.87,222.073,1433.378,308.319c34.685,11.06,67.865,26.427,101.433,46.98,56.524,34.393,91.808,79.642,104.872,134.49,10.446,43.859,6.782,93.916-10.887,148.781C1598.719,731.958,1537.612,807.925,1537,808.682Z" transform="translate(-973.807 90.035)" fill="#fff"/>
            </g>
            <g id="Group_3425" data-name="Group 3425" transform="translate(188.28 21.754)">
              <path id="Path_1555" data-name="Path 1555" d="M1565.07,808.574l-.81-.333c.583-.769,58.758-78.021,85.462-172.455,24.631-87.105,26.754-207.06-103.01-283.87-33.972-20.234-67.555-35.263-102.668-45.948-120.031-36.524-255.782-79.6-347.619-128.681C996.411,123.837,961.185,70.1,988.735,13c47.374-98.179,61.434-99.991,95.4-104.367l2.48-.321.163.671-2.483.321c-33.592,4.328-47.5,6.119-94.69,103.924C962.216,70,997.333,123.487,1096.97,176.736c91.755,49.036,227.447,92.094,347.429,128.6,35.2,10.711,68.854,25.773,102.9,46.048,57.467,34.016,94.158,79.231,109.052,134.387,11.911,44.106,9.985,94.629-5.721,150.166C1623.89,730.473,1565.655,807.8,1565.07,808.574Z" transform="translate(-979.688 91.684)" fill="#fff"/>
            </g>
            <g id="Group_3426" data-name="Group 3426" transform="translate(192.756 20.791)">
              <path id="Path_1556" data-name="Path 1556" d="M1593.14,808.466l-.822-.316c.555-.783,55.861-79.4,79.228-174.978,21.554-88.161,19.56-209.2-112.341-285.164-34.434-19.953-68.493-34.678-104.126-45.017-150.34-43.625-267.745-81.717-352.069-125.83C1002.319,124.487,966.9,70.774,994.733,12.954c48.19-100.119,61.459-101.816,93.518-105.915q1.417-.181,2.885-.371l.162.671q-1.47.192-2.888.372c-31.68,4.051-44.793,5.728-92.8,105.47-27.674,57.494,7.634,110.951,107.941,163.426,84.248,44.073,201.6,82.145,351.873,125.75,35.717,10.365,69.853,25.122,104.358,45.116,58.41,33.639,96.508,78.82,113.234,134.285,13.374,44.353,13.187,95.342-.558,151.552C1649.059,728.988,1593.7,807.683,1593.14,808.466Z" transform="translate(-985.57 93.332)" fill="#fff"/>
            </g>
            <g id="Group_3427" data-name="Group 3427" transform="translate(197.23 19.827)">
              <path id="Path_1557" data-name="Path 1557" d="M1621.209,808.359l-.833-.3c.527-.8,52.963-80.776,72.993-177.5,18.476-89.219,12.365-211.341-121.67-286.459-34.885-19.668-69.421-34.088-105.584-44.086-131.366-36.317-265.477-76.35-356.522-122.969C1008.227,125.139,972.617,71.447,1000.73,12.9c49.012-102.065,61.513-103.648,91.715-107.473q1.569-.2,3.207-.41l.162.671q-1.64.214-3.211.411c-29.823,3.777-42.168,5.341-91,107.028-27.955,58.216,7.542,111.65,108.519,163.356,90.96,46.577,225.009,86.589,356.317,122.891,36.25,10.022,70.864,24.473,105.822,44.182,59.353,33.263,98.856,78.408,117.413,134.182,14.839,44.6,16.39,96.056,4.608,152.937C1674.228,727.5,1621.738,807.561,1621.209,808.359Z" transform="translate(-991.449 94.981)" fill="#fff"/>
            </g>
            <g id="Group_3428" data-name="Group 3428" transform="translate(201.705 18.864)">
              <path id="Path_1558" data-name="Path 1558" d="M1649.281,808.25l-.845-.281c.5-.81,50.065-82.153,66.758-180.023,15.4-90.278,5.172-213.482-131-287.754-35.326-19.381-70.34-33.5-107.043-43.155-132.683-34.914-268.247-73.63-360.974-120.1C1014.133,125.792,978.333,72.12,1006.728,12.851c49.833-104.019,61.588-105.489,89.986-109.043,1.124-.14,2.273-.284,3.453-.438l.162.671q-1.773.231-3.458.439c-28.018,3.506-39.615,4.957-89.268,108.6-28.235,58.936,7.451,112.35,109.1,163.293,92.64,46.43,228.138,85.125,360.763,120.024,36.793,9.681,71.886,23.828,107.285,43.249,60.3,32.887,101.206,78,121.592,134.08,16.3,44.847,19.592,96.769,9.773,154.323C1699.4,726.015,1649.779,807.439,1649.281,808.25Z" transform="translate(-997.33 96.63)" fill="#fff"/>
            </g>
            <g id="Group_3429" data-name="Group 3429" transform="translate(206.272 17.901)">
              <path id="Path_1559" data-name="Path 1559" d="M1677.378,808.142l-.855-.264c.47-.823,47.168-83.53,60.525-182.546,12.321-91.335-2.024-215.624-140.333-289.049a470.039,470.039,0,0,0-108.5-42.223c-95.535-23.9-205.16-52.881-293.885-86.586-93.219-35.411-150.855-71.269-176.205-109.624C1000.4,71.034,998.6,42.42,1012.754,12.8c50.658-105.98,61.685-107.339,88.326-110.623,1.177-.145,2.386-.294,3.63-.456l.162.672c-1.247.163-2.458.312-3.639.457-26.258,3.237-37.128,4.577-87.6,110.176-14.074,29.442-12.281,57.88,5.329,84.524,25.258,38.218,82.761,73.976,175.8,109.317,88.671,33.684,198.256,62.651,293.758,86.546a471.124,471.124,0,0,1,108.747,42.316c61.237,32.51,103.554,77.587,125.773,133.978,17.767,45.094,22.792,97.482,14.935,155.708C1724.595,724.529,1677.849,807.317,1677.378,808.142Z" transform="translate(-1003.332 98.279)" fill="#fff"/>
            </g>
            <g id="Group_3430" data-name="Group 3430" transform="translate(210.753 16.937)">
              <path id="Path_1560" data-name="Path 1560" d="M1705.449,808.034l-.865-.247c.441-.837,44.27-84.908,54.29-185.07,9.242-92.394-9.22-217.767-149.665-290.345a472.8,472.8,0,0,0-109.958-41.292c-96.21-22.86-206.733-50.711-297-83.947C1108.43,172.59,1050.283,137.2,1024.487,98.957c-18.21-27-20.139-56-5.734-86.208,51.486-107.947,61.8-109.2,86.728-112.212,1.211-.146,2.459-.3,3.746-.465l.161.672c-1.291.168-2.542.32-3.757.467-24.542,2.97-34.7,4.2-86,111.765-14.32,30.023-12.405,58.85,5.69,85.679,25.7,38.11,83.715,73.394,177.348,107.87,90.212,33.215,200.694,61.055,296.87,83.908a473.827,473.827,0,0,1,110.208,41.383c62.181,32.133,105.9,77.175,129.953,133.874,19.232,45.342,25.994,98.2,20.1,157.094C1749.765,723.043,1705.891,807.195,1705.449,808.034Z" transform="translate(-1009.22 99.928)" fill="#fff"/>
            </g>
            <g id="Group_3431" data-name="Group 3431" transform="translate(215.233 15.974)">
              <path id="Path_1561" data-name="Path 1561" d="M1733.52,807.925l-.873-.229c.413-.852,41.372-86.286,48.055-187.593,6.165-93.453-16.414-219.91-159-291.642a475.712,475.712,0,0,0-111.418-40.36c-91.253-20.565-207.834-48.394-300.126-81.319-94.43-33.689-153.086-68.6-179.319-106.742-18.691-27.174-20.74-56.559-6.09-87.341,52.314-109.92,61.938-111.059,85.187-113.811,1.227-.145,2.493-.294,3.805-.466l.162.672c-1.317.172-2.588.322-3.82.468-22.864,2.706-32.327,3.825-84.458,113.362-14.564,30.6-12.531,59.806,6.042,86.808,26.138,38,84.655,72.815,178.9,106.436,92.234,32.905,208.77,60.723,299.992,81.281A476.78,476.78,0,0,1,1622.23,327.9c63.123,31.757,108.252,76.765,134.133,133.772,20.7,45.589,29.2,98.91,25.265,158.481C1774.934,721.557,1733.934,807.072,1733.52,807.925Z" transform="translate(-1015.108 101.577)" fill="#fff"/>
            </g>
            <g id="Group_3432" data-name="Group 3432" transform="translate(219.713 15.011)">
              <path id="Path_1562" data-name="Path 1562" d="M1761.59,807.817l-.882-.212c.385-.865,38.475-87.665,41.821-190.117,3.087-94.512-23.611-222.053-168.329-292.937a485.437,485.437,0,0,0-112.877-39.429c-216.9-46.3-425.668-100.633-484.135-184.024-19.165-27.334-21.331-57.093-6.438-88.45,53.144-111.9,62.089-112.928,83.7-115.416,1.226-.141,2.493-.287,3.812-.459l.162.672c-1.325.173-2.6.32-3.831.461-21.221,2.443-30,3.454-82.966,114.966-14.806,31.174-12.657,60.752,6.386,87.913,58.306,83.162,266.871,137.428,483.569,183.682a486.557,486.557,0,0,1,113.134,39.516c64.066,31.38,110.6,76.354,138.311,133.67,22.16,45.836,32.4,99.623,30.428,159.866C1800.1,720.07,1761.974,806.952,1761.59,807.817Z" transform="translate(-1020.995 103.226)" fill="#fff"/>
            </g>
            <g id="Group_3433" data-name="Group 3433" transform="translate(224.192 14.048)">
              <path id="Path_1563" data-name="Path 1563" d="M1789.659,807.708l-.889-.194c.356-.879,35.577-89.043,35.587-192.643.008-95.57-30.807-224.2-177.66-294.233a488.674,488.674,0,0,0-114.338-38.5c-218.631-44.131-429.173-96.482-488.831-180.011-19.63-27.483-21.91-57.607-6.777-89.534,53.976-113.882,62.255-114.8,82.255-117.028,1.21-.134,2.463-.274,3.772-.444l.162.671c-1.317.172-2.578.312-3.8.448-19.609,2.182-27.726,3.085-81.518,116.578-15.045,31.741-12.782,61.683,6.722,88.991,26.98,37.776,86.507,71.668,181.98,103.61,95.091,31.815,213.63,57.36,306.277,76.06A489.779,489.779,0,0,1,1647.2,320.067c65.009,31,112.95,75.943,142.492,133.568,23.625,46.083,35.6,100.337,35.592,161.252C1825.271,718.584,1790.016,806.829,1789.659,807.708Z" transform="translate(-1026.882 104.874)" fill="#fff"/>
            </g>
            <g id="Group_3434" data-name="Group 3434" transform="translate(228.672 13.084)">
              <path id="Path_1564" data-name="Path 1564" d="M1817.728,807.6l-.895-.177c.326-.892,32.678-90.421,29.351-195.168-3.07-96.629-38-226.339-186.993-295.528A492.072,492.072,0,0,0,1543.4,279.163c-138.788-26.446-234.265-49.114-309.578-73.5-96.3-31.183-156.473-64.717-183.963-102.52-20.085-27.62-22.476-58.1-7.106-90.593,54.809-115.87,62.435-116.683,80.858-118.648,1.18-.125,2.4-.256,3.688-.423l.162.671c-1.3.169-2.529.3-3.717.428-18.029,1.922-25.49,2.718-80.114,118.2-15.281,32.306-12.909,62.6,7.049,90.047,27.388,37.663,87.418,71.1,183.519,102.217,75.265,24.372,170.7,47.03,309.436,73.466a493.149,493.149,0,0,1,116.058,37.648c65.952,30.627,115.3,75.531,146.671,133.466,25.088,46.331,38.8,101.051,40.754,162.639C1850.44,717.1,1818.055,806.708,1817.728,807.6Z" transform="translate(-1032.769 106.523)" fill="#fff"/>
            </g>
            <g id="Group_3435" data-name="Group 3435" transform="translate(233.151 12.121)">
              <path id="Path_1565" data-name="Path 1565" d="M1845.8,807.493l-.9-.161c.3-.906,29.781-91.8,23.117-197.693-6.148-97.689-45.2-228.483-196.326-296.824a495.616,495.616,0,0,0-117.254-36.633c-139.94-25.125-236.4-47-312.753-70.916-96.933-30.367-157.613-63.449-185.5-101.139-20.534-27.746-23.032-58.575-7.428-91.628,55.643-117.863,62.627-118.569,79.5-120.274,1.141-.115,2.32-.235,3.563-.4l.163.671c-1.261.165-2.45.285-3.6.4-16.475,1.665-23.294,2.355-78.751,119.822-15.515,32.864-13.037,63.508,7.365,91.079,27.788,37.549,88.319,70.533,185.054,100.837,76.308,23.905,172.719,45.766,312.608,70.88a496.771,496.771,0,0,1,117.521,36.715c66.893,30.25,117.647,75.12,150.849,133.364,26.553,46.578,42,101.764,45.918,164.026C1875.607,715.611,1846.1,806.586,1845.8,807.493Z" transform="translate(-1038.655 108.172)" fill="#fff"/>
            </g>
            <g id="Group_3436" data-name="Group 3436" transform="translate(237.63 11.158)">
              <path id="Path_1566" data-name="Path 1566" d="M1873.865,807.384l-.906-.144c.27-.919,26.883-93.178,16.881-200.219-9.228-98.747-52.4-230.627-205.66-298.12a499.316,499.316,0,0,0-118.713-35.7c-141.126-23.824-238.565-44.9-315.938-68.34-97.579-29.559-158.76-62.2-187.044-99.772-20.973-27.862-23.575-59.031-7.738-92.64,56.478-119.861,62.831-120.46,78.18-121.907,1.087-.1,2.21-.208,3.4-.363l.162.671c-1.212.158-2.347.265-3.445.369-14.946,1.409-21.132,1.992-77.422,121.453-15.747,33.419-13.165,64.4,7.673,92.087,28.178,37.436,89.211,69.974,186.585,99.472,77.325,23.425,174.719,44.49,315.793,68.305a500.489,500.489,0,0,1,118.983,35.78c67.836,29.874,120,74.709,155.029,133.262,28.016,46.825,45.2,102.478,51.081,165.412C1900.774,714.125,1874.136,806.464,1873.865,807.384Z" transform="translate(-1044.541 109.821)" fill="#fff"/>
            </g>
            <g id="Group_3437" data-name="Group 3437" transform="translate(242.108 10.194)">
              <path id="Path_1567" data-name="Path 1567" d="M1901.933,807.276l-.911-.128c.241-.933,23.986-94.558,10.646-202.745-12.306-99.807-59.6-232.771-214.995-299.414A503.1,503.1,0,0,0,1576.5,270.22c-140.418-22.235-241.824-43.135-319.137-65.772-98.226-28.761-159.912-60.954-188.58-98.419-21.4-27.968-24.107-59.469-8.04-93.63,57.316-121.863,63.047-122.355,76.9-123.545,1.021-.088,2.078-.178,3.2-.325l.162.672c-1.151.15-2.222.242-3.257.331-13.047,1.12-19,1.632-76.127,123.09-15.976,33.968-13.294,65.282,7.972,93.072,28.561,37.323,90.094,69.418,188.115,98.119,77.263,22.623,178.624,43.512,318.989,65.739A504.276,504.276,0,0,1,1697.144,304.4c68.778,29.5,122.344,74.3,159.207,133.16,29.48,47.073,48.4,103.191,56.244,166.8C1925.942,712.637,1902.174,806.342,1901.933,807.276Z" transform="translate(-1050.426 111.47)" fill="#fff"/>
            </g>
            <g id="Group_3438" data-name="Group 3438" transform="translate(246.587 9.231)">
              <path id="Path_1568" data-name="Path 1568" d="M1930,807.169l-.915-.113c.213-.946,21.088-95.936,4.412-205.271-15.385-100.867-66.793-234.915-224.329-300.71a507.066,507.066,0,0,0-121.63-33.836c-141.644-20.984-244.072-41.071-322.347-63.212-98.884-27.972-161.07-59.726-190.115-97.078-21.823-28.064-24.626-59.891-8.332-94.6,58.153-123.869,63.273-124.256,75.645-125.189.946-.071,1.925-.144,2.972-.281l.161.671c-1.081.142-2.076.216-3.039.289-11.606.875-16.9,1.274-74.863,124.732-16.2,34.513-13.423,66.151,8.261,94.036,65.155,83.789,295.3,127.881,511.84,159.96a508.22,508.22,0,0,1,121.906,33.912c69.722,29.12,124.695,73.887,163.387,133.058,30.944,47.321,51.6,103.906,61.408,168.185C1951.108,711.151,1930.213,806.221,1930,807.169Z" transform="translate(-1056.312 113.119)" fill="#fff"/>
            </g>
            <g id="Group_3439" data-name="Group 3439" transform="translate(250.972 8.268)">
              <path id="Path_1569" data-name="Path 1569" d="M1958.039,807.062l-.918-.1c.183-.96,18.189-97.316-1.824-207.8-18.464-101.927-73.99-237.06-233.661-302.007a511.138,511.138,0,0,0-123.091-32.9C1455.6,244.5,1352.1,225.213,1272.805,203.551c-99.624-27.217-162.325-58.557-191.686-95.811-22.172-28.132-25-60.243-8.406-95.439,58.632-125.88,63.574-126.18,74.4-126.835.87-.053,1.768-.108,2.735-.234l.161.672c-1.007.132-1.929.188-2.82.241-10.411.631-15.163.919-73.6,126.378-16.5,35-13.7,66.921,8.332,94.875,66.068,83.828,298.318,126,516.794,156.189a512.352,512.352,0,0,1,123.367,32.977c70.665,28.743,127.042,73.476,167.566,132.956,32.407,47.567,54.8,104.62,66.568,169.573C1976.245,709.664,1958.223,806.1,1958.039,807.062Z" transform="translate(-1062.074 114.768)" fill="#fff"/>
            </g>
            <g id="Group_3440" data-name="Group 3440" transform="translate(255.379 7.304)">
              <path id="Path_1570" data-name="Path 1570" d="M1986.082,806.954l-.921-.08c.156-.975,15.293-98.7-8.058-210.327-21.543-102.986-81.189-239.2-243-303.3a515.351,515.351,0,0,0-124.549-31.971c-144.213-18.529-248.738-37.008-328.952-58.156-100.282-26.44-163.483-57.347-193.213-94.489-11.089-13.854-17.524-28.8-19.125-44.414-1.665-16.237,1.841-33.72,10.422-51.964,59.517-127.9,63.811-128.086,73.217-128.489.772-.032,1.571-.067,2.436-.18l.161.672c-.918.12-1.743.155-2.543.189-8.708.373-13.078.56-72.394,128.03-16.716,35.542-13.814,67.777,8.625,95.809,67.072,83.793,301.272,124.02,521.525,152.319a516.537,516.537,0,0,1,124.831,32.042c71.607,28.366,129.39,73.065,171.745,132.854,33.872,47.815,58,105.334,71.731,170.96C2001.39,708.178,1986.239,805.979,1986.082,806.954Z" transform="translate(-1067.865 116.417)" fill="#fff"/>
            </g>
            <g id="Group_3441" data-name="Group 3441" transform="translate(259.867 6.341)">
              <path id="Path_1571" data-name="Path 1571" d="M2014.153,806.846l-.924-.064c.128-.988,12.394-100.077-14.295-212.854-24.623-104.046-88.387-241.349-252.331-304.6a519.7,519.7,0,0,0-126.01-31.037c-145.505-17.316-251.056-34.987-332.174-55.614-100.948-25.669-164.648-56.147-194.739-93.178-11.289-13.892-17.849-28.931-19.5-44.7-1.714-16.387,1.821-34.084,10.507-52.6,60.405-129.931,64.059-130,72.062-130.146a18.439,18.439,0,0,0,2.109-.123l.161.672a19.422,19.422,0,0,1-2.246.133c-7.332.135-11.012.2-71.209,129.686-16.925,36.078-13.928,68.62,8.909,96.724,68.047,83.741,304.216,122.045,526.265,148.47a520.869,520.869,0,0,1,126.292,31.106c72.55,27.99,131.739,72.654,175.924,132.753,35.334,48.063,61.205,106.049,76.894,172.347C2026.557,706.691,2014.279,805.857,2014.153,806.846Z" transform="translate(-1073.764 118.066)" fill="#fff"/>
            </g>
            <g id="Group_3442" data-name="Group 3442" transform="translate(264.356 5.378)">
              <path id="Path_1572" data-name="Path 1572" d="M2042.222,806.74l-.925-.049c.1-1,9.495-101.458-20.531-215.383-27.7-105.1-95.585-243.493-261.665-305.893a524.076,524.076,0,0,0-127.469-30.1c-146.819-16.113-253.4-32.979-335.405-53.078-101.621-24.9-165.819-54.96-196.264-91.881-11.484-13.926-18.166-29.056-19.863-44.968-1.762-16.534,1.8-34.442,10.593-53.227,61.3-131.971,64.318-131.905,70.938-131.807a11.708,11.708,0,0,0,1.751-.063l.161.672a12.648,12.648,0,0,1-1.933.073c-5.946-.1-8.956-.162-70.039,131.346-17.132,36.608-14.042,69.452,9.185,97.62,30.326,36.778,94.361,66.736,195.763,91.588,81.956,20.087,188.485,36.943,335.25,53.05a525.312,525.312,0,0,1,127.754,30.172c73.493,27.613,134.089,72.243,180.1,132.652,36.8,48.311,64.406,106.763,82.055,173.735C2051.727,705.2,2042.321,805.738,2042.222,806.74Z" transform="translate(-1079.662 119.715)" fill="#fff"/>
            </g>
            <g id="Group_3443" data-name="Group 3443" transform="translate(268.845 4.374)">
              <path id="Path_1573" data-name="Path 1573" d="M2070.291,806.6l-.925-.035c.07-1.015,6.6-102.838-26.767-217.911-30.781-106.167-102.784-245.64-271-307.19A528.742,528.742,0,0,0,1642.672,252.3c-148.157-14.919-255.765-30.981-338.651-50.547-102.3-24.149-167-53.783-197.787-90.6-11.674-13.957-18.477-29.175-20.218-45.23-1.809-16.678,1.784-34.794,10.679-53.846,62.193-134.014,64.422-133.856,69.846-133.47a6.371,6.371,0,0,0,1.359,0l.161.672a7.646,7.646,0,0,1-1.611.008c-4.464-.324-6.927-.481-68.878,133.012-17.337,37.133-14.157,70.272,9.451,98.5,30.671,36.669,95.2,66.207,197.28,90.3,82.834,19.554,190.393,35.607,338.493,50.521a529.918,529.918,0,0,1,129.215,29.237c74.436,27.236,136.437,71.832,184.28,132.55,38.262,48.558,67.607,107.478,87.218,175.124C2076.9,703.689,2070.362,805.588,2070.291,806.6Z" transform="translate(-1085.562 121.433)" fill="#fff"/>
            </g>
            <g id="Group_3444" data-name="Group 3444" transform="translate(273.334 3.294)">
              <path id="Path_1574" data-name="Path 1574" d="M2098.36,806.414l-.927-.02c.042-1.029,3.7-104.218-33-220.44-33.86-107.227-109.981-247.787-280.334-308.487-40.725-14.531-84.594-24.032-130.387-28.239-149.512-13.734-258.153-28.994-341.9-48.024-102.982-23.4-168.176-52.616-199.309-89.323-11.86-13.984-18.78-29.288-20.565-45.483-1.853-16.818,1.769-35.139,10.766-54.456,63.105-136.1,64.771-135.817,68.8-135.132a2.982,2.982,0,0,0,.923.059l.161.672a4.092,4.092,0,0,1-1.294-.066c-1.387-.237-2.692-.451-11.3,16.091-9.2,17.695-26.076,53.163-56.416,118.6-17.539,37.654-14.272,71.082,9.708,99.356,31.01,36.561,96.036,65.684,198.8,89.032,83.7,19.017,192.289,34.269,341.744,48,45.9,4.216,89.862,13.738,130.678,28.3,75.379,26.859,138.785,71.421,188.459,132.449,39.726,48.806,70.807,108.193,92.379,176.512C2102.065,702.119,2098.4,805.384,2098.36,806.414Z" transform="translate(-1091.46 123.281)" fill="#fff"/>
            </g>
            <g id="Group_3445" data-name="Group 3445" transform="translate(277.823 2.215)">
              <path id="Path_1575" data-name="Path 1575" d="M2126.429,806.225l-.928-.006c.013-1.043.8-105.6-39.237-222.971-36.94-108.287-117.182-249.933-289.67-309.784-41.036-14.252-85.4-23.438-131.848-27.305-150.885-12.558-260.565-27.018-345.167-45.506-103.672-22.655-169.365-51.461-200.83-88.061-12.043-14.009-19.076-29.394-20.9-45.728-1.9-16.955,1.755-35.479,10.853-55.056,59.983-129.468,64.282-136.174,66.719-136.88a1.608,1.608,0,0,1,1.107.11.845.845,0,0,0,.415.1l.161.672a1.913,1.913,0,0,1-1.013-.166c-.215-.085-.262-.1-.33-.076-2.362.685-12.478,20.55-66.181,136.465-17.738,38.171-14.388,71.882,9.956,100.2,31.341,36.456,96.863,65.166,200.31,87.772,84.55,18.476,194.178,32.929,345.008,45.482,46.553,3.875,91.011,13.083,132.139,27.367,76.321,26.482,141.134,71.01,192.637,132.348,41.19,49.054,74.007,108.909,97.541,177.9C2127.232,700.549,2126.442,805.181,2126.429,806.225Z" transform="translate(-1097.36 125.129)" fill="#fff"/>
            </g>
            <g id="Group_3446" data-name="Group 3446" transform="translate(282.311 1.117)">
              <path id="Path_1576" data-name="Path 1576" d="M2153.571,806.031c-.017-1.057-2.1-106.981-45.473-225.5-40.022-109.349-124.381-252.081-299.007-311.082-41.152-13.911-86-22.784-133.308-26.372-151.918-11.2-262.6-24.8-348.316-42.8-104.312-21.9-170.51-50.3-202.378-86.831C1112.824,99.391,1105.65,83.9,1103.766,67.4c-1.954-17.121,1.724-35.874,10.934-55.739,64.135-138.541,64.933-138.587,66.255-138.664a.738.738,0,0,1,.692.364.585.585,0,0,0,.063.081.338.338,0,0,0-.25-.057l.16.672a.756.756,0,0,1-.667-.224c-2.089,2.409-13.791,26.616-65.375,138.048-17.96,38.74-14.5,72.788,10.29,101.2,31.742,36.38,97.768,64.688,201.852,86.543,85.665,17.987,196.293,31.579,348.156,42.774,47.407,3.6,92.356,12.489,133.6,26.431,77.264,26.105,143.483,70.6,196.817,132.248,42.652,49.3,77.207,109.625,102.7,179.291,43.4,118.6,45.484,224.6,45.5,225.657Z" transform="translate(-1103.257 127.007)" fill="#fff"/>
            </g>
            <g id="Group_3447" data-name="Group 3447" transform="translate(286.802)">
              <path id="Path_1577" data-name="Path 1577" d="M2181.64,805.83c-.055-1.337-6.3-135.213-70.232-271.2-58.976-125.453-180.512-278.409-424.585-294.649-153.686-10.226-265.45-23.091-351.726-40.487-105.068-21.185-171.755-49.175-203.87-85.571-12.4-14.048-19.647-29.588-21.552-46.189-1.977-17.221,1.734-36.141,11.029-56.234,25.6-55.342,44.071-95.19,54.9-118.437,4.41-9.466,6.96-14.9,8.41-17.972.944-2,1.428-3.021,1.73-3.531.034-.079.065-.152.074-.183l.037.007c.237-.351.353-.322.564-.271.451.111.358.322.08.95l-.051-.012c-1.45,2.953-10.841,22.864-64.871,139.668-18.127,39.189-14.62,73.449,10.424,101.831,31.985,36.249,98.5,64.146,203.336,85.285,86.223,17.385,197.935,30.243,351.564,40.465,108,7.186,201.272,41.454,277.219,101.851,60.737,48.3,110.586,113.327,148.166,193.27,63.97,136.086,70.22,270.052,70.277,271.389Z" transform="translate(-1109.159 128.92)" fill="#fff"/>
            </g>
          </g>
        </g>
      </g>
    </g>
  </g>
</svg>
